<svg width="120" height="31" viewBox="0 0 120 31" fill="none" xmlns="http://www.w3.org/2000/svg">
<path d="M15 30C23.2843 30 30 23.2843 30 15C30 6.71573 23.2843 0 15 0C6.71573 0 0 6.71573 0 15C0 23.2843 6.71573 30 15 30Z" fill="#FDFFF5"/>
<path d="M18.7708 15.5873H16.0943V25.393H12.039V15.5873H10.1104V12.1412H12.039V9.91119C12.039 8.31648 12.7965 5.81934 16.1304 5.81934L19.1342 5.8319V9.17694H16.9547C16.5972 9.17694 16.0945 9.35556 16.0945 10.1163V12.1444H19.1251L18.7708 15.5873Z" fill="#B0916E"/>
<path d="M62.8905 16C62.8905 17.5857 61.6008 18.8711 60.0097 18.8711C58.4186 18.8711 57.1289 17.5857 57.1289 16C57.1289 14.4143 58.4186 13.1289 60.0097 13.1289C61.6008 13.1289 62.8905 14.4143 62.8905 16Z" fill="#FDFFF5"/>
<path d="M66.6981 10.9202C66.5602 10.5462 66.3403 10.2076 66.0546 9.92978C65.777 9.64368 65.4391 9.42349 65.0654 9.28548C64.7622 9.1676 64.3068 9.0273 63.4681 8.98907C62.5607 8.94765 62.2887 8.93872 59.9916 8.93872C57.6943 8.93872 57.4222 8.94742 56.5151 8.98885C55.6763 9.0273 55.2207 9.1676 54.9178 9.28548C54.544 9.42349 54.2059 9.64368 53.9286 9.92978C53.6428 10.2076 53.4229 10.5459 53.2848 10.9202C53.1671 11.2236 53.0269 11.6798 52.9888 12.5196C52.9474 13.4278 52.9385 13.7001 52.9385 16.0002C52.9385 18.3 52.9474 18.5724 52.9888 19.4808C53.0269 20.3206 53.1671 20.7765 53.2848 21.08C53.4229 21.4542 53.6426 21.7925 53.9284 22.0704C54.2059 22.3565 54.5438 22.5766 54.9176 22.7147C55.2207 22.8328 55.6763 22.9731 56.5151 23.0113C57.4222 23.0527 57.694 23.0614 59.9913 23.0614C62.2889 23.0614 62.5609 23.0527 63.4678 23.0113C64.3066 22.9731 64.7622 22.8328 65.0654 22.7147C65.8157 22.4249 66.4087 21.8312 66.6981 21.08C66.8158 20.7765 66.956 20.3206 66.9944 19.4808C67.0358 18.5724 67.0444 18.3 67.0444 16.0002C67.0444 13.7001 67.0358 13.4278 66.9944 12.5196C66.9562 11.6798 66.8161 11.2236 66.6981 10.9202ZM59.9916 20.4229C57.5516 20.4229 55.5737 18.4428 55.5737 16C55.5737 13.5571 57.5516 11.577 59.9916 11.577C62.4313 11.577 64.4092 13.5571 64.4092 16C64.4092 18.4428 62.4313 20.4229 59.9916 20.4229ZM64.5839 12.4358C64.0137 12.4358 63.5515 11.973 63.5515 11.4022C63.5515 10.8313 64.0137 10.3685 64.5839 10.3685C65.1541 10.3685 65.6163 10.8313 65.6163 11.4022C65.6161 11.973 65.1541 12.4358 64.5839 12.4358Z" fill="#FDFFF5"/>
<path d="M60 1C51.717 1 45 7.717 45 16C45 24.283 51.717 31 60 31C68.283 31 75 24.283 75 16C75 7.717 68.283 1 60 1ZM68.5613 19.5511C68.5197 20.468 68.3739 21.094 68.161 21.6419C67.7135 22.7989 66.7989 23.7135 65.6419 24.161C65.0942 24.3739 64.468 24.5194 63.5513 24.5613C62.6328 24.6032 62.3394 24.6133 60.0002 24.6133C57.6608 24.6133 57.3676 24.6032 56.4489 24.5613C55.5322 24.5194 54.906 24.3739 54.3583 24.161C53.7833 23.9447 53.2629 23.6057 52.8326 23.1674C52.3945 22.7374 52.0555 22.2167 51.8392 21.6419C51.6264 21.0942 51.4806 20.468 51.4389 19.5513C51.3966 18.6326 51.3867 18.3392 51.3867 16C51.3867 13.6608 51.3966 13.3674 51.4387 12.4489C51.4803 11.532 51.6259 10.906 51.8388 10.3581C52.0551 9.78334 52.3943 9.26263 52.8326 8.83257C53.2626 8.39426 53.7833 8.05528 54.3581 7.83899C54.906 7.62613 55.532 7.48056 56.4489 7.43867C57.3674 7.39679 57.6608 7.38672 60 7.38672C62.3392 7.38672 62.6326 7.39679 63.5511 7.4389C64.468 7.48056 65.094 7.62613 65.6419 7.83876C66.2167 8.05505 66.7374 8.39426 67.1677 8.83257C67.6057 9.26286 67.9449 9.78334 68.161 10.3581C68.3741 10.906 68.5197 11.532 68.5616 12.4489C68.6034 13.3674 68.6133 13.6608 68.6133 16C68.6133 18.3392 68.6034 18.6326 68.5613 19.5511Z" fill="#FDFFF5"/>
<path d="M60 1C51.717 1 45 7.717 45 16C45 24.283 51.717 31 60 31C68.283 31 75 24.283 75 16C75 7.717 68.283 1 60 1ZM68.5613 19.5511C68.5197 20.468 68.3739 21.094 68.161 21.6419C67.7135 22.7989 66.7989 23.7135 65.6419 24.161C65.0942 24.3739 64.468 24.5194 63.5513 24.5613C62.6328 24.6032 62.3394 24.6133 60.0002 24.6133C57.6608 24.6133 57.3676 24.6032 56.4489 24.5613C55.5322 24.5194 54.906 24.3739 54.3583 24.161C53.7833 23.9447 53.2629 23.6057 52.8326 23.1674C52.3945 22.7374 52.0555 22.2167 51.8392 21.6419C51.6264 21.0942 51.4806 20.468 51.4389 19.5513C51.3966 18.6326 51.3867 18.3392 51.3867 16C51.3867 13.6608 51.3966 13.3674 51.4387 12.4489C51.4803 11.532 51.6259 10.906 51.8388 10.3581C52.0551 9.78334 52.3943 9.26263 52.8326 8.83257C53.2626 8.39426 53.7833 8.05528 54.3581 7.83899C54.906 7.62613 55.532 7.48056 56.4489 7.43867C57.3674 7.39679 57.6608 7.38672 60 7.38672C62.3392 7.38672 62.6326 7.39679 63.5511 7.4389C64.468 7.48056 65.094 7.62613 65.6419 7.83876C66.2167 8.05505 66.7374 8.39426 67.1677 8.83257C67.6057 9.26286 67.9449 9.78334 68.161 10.3581C68.3741 10.906 68.5197 11.532 68.5616 12.4489C68.6034 13.3674 68.6133 13.6608 68.6133 16C68.6133 18.3392 68.6034 18.6326 68.5613 19.5511Z" fill="#FDFFF5"/>
<circle cx="105" cy="16" r="15" fill="#FDFFF5"/>
<path d="M95.3342 23.1402C97.2052 24.3182 99.4247 24.9999 101.804 24.9999C108.488 24.9999 113.906 19.6205 113.906 12.9857C113.906 12.82 113.903 12.6556 113.896 12.4916C114.138 12.3028 115.633 11.113 116 10.3482C116 10.3482 114.785 10.8492 113.597 10.9672C113.595 10.9672 113.592 10.9677 113.589 10.9677C113.589 10.9677 113.592 10.9666 113.596 10.9637C113.705 10.891 115.236 9.8565 115.444 8.62384C115.444 8.62384 114.585 9.07892 113.382 9.47705C113.183 9.5427 112.975 9.60725 112.76 9.66708C111.985 8.84584 110.883 8.33325 109.66 8.33325C107.314 8.33325 105.413 10.2198 105.413 12.5468C105.413 12.8752 105.451 13.1948 105.523 13.5017C105.195 13.4883 100.203 13.2105 96.8072 9.12767C96.8072 9.12767 94.7775 11.8784 98.0167 14.707C98.0167 14.707 97.0321 14.6681 96.1825 14.1642C96.1825 14.1642 95.8705 17.4967 99.5389 18.3487C99.5389 18.3487 98.817 18.6201 97.6655 18.4266C97.6655 18.4266 98.3095 21.1193 101.569 21.3709C101.569 21.3709 98.9914 23.6821 95.333 23.1398L95.3342 23.1402Z" fill="#B0916E"/>
</svg>
